<?xml version="1.0" encoding="utf-8"?>
<!-- Generator: Adobe Illustrator 24.1.2, SVG Export Plug-In . SVG Version: 6.00 Build 0)  -->
<svg version="1.1" id="Layer_1" xmlns="http://www.w3.org/2000/svg" xmlns:xlink="http://www.w3.org/1999/xlink" x="0px" y="0px"
	 viewBox="0 0 22.7 22.7" style="enable-background:new 0 0 22.7 22.7;" xml:space="preserve">
<style type="text/css">
	.st0{fill:#FFFFFF;}
</style>
<g>
	<g>
		<path class="st0" d="M1.3,22.6c-0.3,0-0.7-0.1-0.9-0.4c-0.5-0.5-0.5-1.3,0-1.8l20-20c0.5-0.5,1.3-0.5,1.8,0c0.5,0.5,0.5,1.3,0,1.8
			l-20,20C2,22.5,1.6,22.6,1.3,22.6L1.3,22.6z"/>
	</g>
	<g>
		<path class="st0" d="M21.3,22.6c-0.3,0-0.7-0.1-0.9-0.4l-20-20c-0.5-0.5-0.5-1.3,0-1.8c0.5-0.5,1.3-0.5,1.8,0l20,20
			c0.5,0.5,0.5,1.3,0,1.8C22,22.5,21.7,22.6,21.3,22.6L21.3,22.6z"/>
	</g>
</g>
</svg>
