<?xml version="1.0" encoding="utf-8"?>
<!-- Generator: Adobe Illustrator 24.1.2, SVG Export Plug-In . SVG Version: 6.00 Build 0)  -->
<svg version="1.1" id="Layer_1" xmlns="http://www.w3.org/2000/svg" xmlns:xlink="http://www.w3.org/1999/xlink" x="0px" y="0px"
	 viewBox="0 0 300 300" style="enable-background:new 0 0 300 300;" xml:space="preserve">
<style type="text/css">
	.st0{fill:#FFFFFF;}
</style>
<g>
	<g>
		<path class="st0" d="M276,63.7H27.4c-6.6,0-12-5.4-12-12c0-6.6,5.4-12,12-12H276c6.6,0,12,5.4,12,12C288,58.3,282.6,63.7,276,63.7
			L276,63.7z"/>
	</g>
	<g>
		<path class="st0" d="M182.6,56.6c-3-14.6-16-25.2-30.9-25.2c-14.9,0-27.9,10.6-30.9,25.2l-23.5-4.8c5.2-25.7,28.1-44.4,54.4-44.4
			c26.3,0,49.1,18.7,54.4,44.4L182.6,56.6L182.6,56.6z"/>
	</g>
	<g>
		<path class="st0" d="M70.9,294.6c-12.6,0-23-10.2-23.8-23.2L34.7,63.7c-0.4-6.6,4.6-12.3,11.2-12.7c6.8-0.5,12.3,4.7,12.7,11.2
			L71,269.9l161.5,0.7l12.3-208.4c0.4-6.6,6.2-11.6,12.7-11.2c6.6,0.4,11.6,6.1,11.2,12.7l-12.4,207.7
			c-0.8,13.1-11.3,23.3-23.8,23.3c0,0,0,0,0,0H70.9L70.9,294.6z"/>
	</g>
	<g>
		<g>
			<path class="st0" d="M106.2,250.6c-6.3,0-11.6-4.9-11.9-11.3l-8-142.8c-0.4-6.6,4.7-12.3,11.3-12.6c6.6-0.5,12.3,4.7,12.6,11.3
				l8,142.8c0.4,6.6-4.7,12.3-11.3,12.6C106.7,250.6,106.5,250.6,106.2,250.6L106.2,250.6z"/>
		</g>
		<g>
			<path class="st0" d="M197.1,250.6c-0.2,0-0.5,0-0.7,0c-6.6-0.4-11.7-6-11.3-12.6l8-142.8c0.4-6.6,6.2-11.8,12.6-11.3
				c6.6,0.4,11.7,6,11.3,12.6l-8,142.8C208.7,245.7,203.4,250.6,197.1,250.6L197.1,250.6z"/>
		</g>
	</g>
	<g>
		<path class="st0" d="M151.7,250.6c-6.6,0-12-5.4-12-12V95.9c0-6.6,5.4-12,12-12c6.6,0,12,5.4,12,12v142.8
			C163.7,245.3,158.3,250.6,151.7,250.6L151.7,250.6z"/>
	</g>
</g>
</svg>
