<?xml version="1.0" encoding="utf-8"?>
<!-- Generator: Adobe Illustrator 24.1.2, SVG Export Plug-In . SVG Version: 6.00 Build 0)  -->
<svg version="1.1" id="Layer_1" xmlns="http://www.w3.org/2000/svg" xmlns:xlink="http://www.w3.org/1999/xlink" x="0px" y="0px"
	 viewBox="0 0 22.7 22.7" style="enable-background:new 0 0 22.7 22.7;" xml:space="preserve">
<style type="text/css">
	.st0{fill:#FFFFFF;}
</style>
<g>
	<g>
		<path class="st0" d="M21.2,4.4H1.5C1,4.4,0.6,4,0.6,3.5C0.6,3,1,2.6,1.5,2.6h19.6c0.5,0,0.9,0.4,0.9,0.9C22.1,4,21.7,4.4,21.2,4.4
			L21.2,4.4z"/>
	</g>
	<g>
		<path class="st0" d="M13.8,3.9c-0.2-1.2-1.3-2-2.4-2c-1.2,0-2.2,0.8-2.4,2L7,3.5C7.5,1.5,9.3,0,11.3,0c2.1,0,3.9,1.5,4.3,3.5
			L13.8,3.9L13.8,3.9z"/>
	</g>
	<g>
		<path class="st0" d="M5,22.7c-1,0-1.8-0.8-1.9-1.8l-1-16.4c0-0.5,0.4-1,0.9-1c0.5,0,1,0.4,1,0.9l1,16.4l12.7,0.1l1-16.5
			c0-0.5,0.5-0.9,1-0.9c0.5,0,0.9,0.5,0.9,1l-1,16.4c-0.1,1-0.9,1.8-1.9,1.8c0,0,0,0,0,0H5L5,22.7z"/>
	</g>
	<g>
		<g>
			<path class="st0" d="M7.7,19.2c-0.5,0-0.9-0.4-0.9-0.9L6.2,7c0-0.5,0.4-1,0.9-1c0.5,0,1,0.4,1,0.9l0.6,11.3
				C8.7,18.7,8.3,19.2,7.7,19.2C7.8,19.2,7.8,19.2,7.7,19.2L7.7,19.2z"/>
		</g>
		<g>
			<path class="st0" d="M14.9,19.2C14.9,19.2,14.9,19.2,14.9,19.2c-0.6,0-1-0.5-0.9-1l0.6-11.3c0-0.5,0.5-0.9,1-0.9
				c0.5,0,0.9,0.5,0.9,1l-0.6,11.3C15.8,18.8,15.4,19.2,14.9,19.2L14.9,19.2z"/>
		</g>
	</g>
	<g>
		<path class="st0" d="M11.3,19.2c-0.5,0-0.9-0.4-0.9-0.9V7c0-0.5,0.4-0.9,0.9-0.9c0.5,0,0.9,0.4,0.9,0.9v11.3
			C12.3,18.8,11.9,19.2,11.3,19.2L11.3,19.2z"/>
	</g>
</g>
</svg>
