<?xml version="1.0" encoding="utf-8"?>
<!-- Generator: Adobe Illustrator 24.1.2, SVG Export Plug-In . SVG Version: 6.00 Build 0)  -->
<svg version="1.1" id="Layer_1" xmlns="http://www.w3.org/2000/svg" xmlns:xlink="http://www.w3.org/1999/xlink" x="0px" y="0px"
	 viewBox="0 0 22.7 22.7" style="enable-background:new 0 0 22.7 22.7;" xml:space="preserve">
<style type="text/css">
	.st0{fill:#FFFFFF;}
</style>
<g>
	<g>
		<g>
			<path class="st0" d="M4.7,18.7c-0.3,0-0.5-0.1-0.7-0.3c-0.2-0.2-0.3-0.5-0.3-0.7L4,13.5c0-0.2,0.1-0.5,0.3-0.6L16.8,0.4
				c0.2-0.2,0.4-0.3,0.7-0.3l0,0c0.3,0,0.5,0.1,0.7,0.3L22,4.4c0.2,0.2,0.3,0.4,0.3,0.7c0,0.3-0.1,0.5-0.3,0.7L9.6,18.2
				c-0.2,0.2-0.4,0.3-0.6,0.3L4.7,18.7C4.7,18.7,4.7,18.7,4.7,18.7L4.7,18.7z M5.9,14l-0.2,2.8l2.8-0.2L20,5l-2.6-2.6L5.9,14L5.9,14
				z"/>
		</g>
		<g>
			<path class="st0" d="M19.1,7.4c-0.1,0-0.2,0-0.3-0.1l-3.5-3.5c-0.2-0.2-0.2-0.5,0-0.7c0.2-0.2,0.5-0.2,0.7,0l3.5,3.5
				c0.2,0.2,0.2,0.5,0,0.7C19.4,7.3,19.3,7.4,19.1,7.4L19.1,7.4z"/>
		</g>
		<path class="st0" d="M5.4,14.8c-0.1,0-0.2,0-0.2,0c-0.1,0-0.1,0-0.2,0l-0.2,2.9l2.8-0.2c0-0.1,0.1-0.2,0.1-0.3
			C7.7,15.9,6.7,14.8,5.4,14.8L5.4,14.8z"/>
	</g>
	<g>
		<path class="st0" d="M21.7,22.7H1c-0.5,0-1-0.4-1-1V1c0-0.5,0.4-1,1-1h10.3c0.5,0,1,0.4,1,1c0,0.5-0.4,1-1,1H1.9v18.9h18.9v-9.4
			c0-0.5,0.4-1,1-1c0.5,0,1,0.4,1,1v10.3C22.7,22.3,22.3,22.7,21.7,22.7L21.7,22.7z"/>
	</g>
</g>
</svg>
