<?xml version="1.0" encoding="utf-8"?>
<!-- Generator: Adobe Illustrator 24.1.2, SVG Export Plug-In . SVG Version: 6.00 Build 0)  -->
<svg version="1.1" id="Layer_1" xmlns="http://www.w3.org/2000/svg" xmlns:xlink="http://www.w3.org/1999/xlink" x="0px" y="0px"
	 viewBox="0 0 22.7 22.7" style="enable-background:new 0 0 22.7 22.7;" xml:space="preserve">
<style type="text/css">
	.st0{fill:#FFFFFF;}
</style>
<g>
	<g>
		<path class="st0" d="M11.3,22.7c-3,0-5.9-1.2-8-3.3c-2.1-2.1-3.3-5-3.3-8s1.2-5.9,3.3-8c2.1-2.1,5-3.3,8-3.3c3,0,5.9,1.2,8,3.3
			c4.4,4.4,4.4,11.6,0,16C17.2,21.5,14.4,22.7,11.3,22.7L11.3,22.7z M11.3,1.9c-2.5,0-4.9,1-6.7,2.8c-1.8,1.8-2.8,4.1-2.8,6.7
			s1,4.9,2.8,6.7c1.8,1.8,4.1,2.8,6.7,2.8s4.9-1,6.7-2.8c3.7-3.7,3.7-9.6,0-13.3C16.2,2.9,13.9,1.9,11.3,1.9L11.3,1.9z"/>
	</g>
	<g>
		<path class="st0" d="M9,17c-0.2,0-0.5-0.1-0.7-0.3c-0.4-0.4-0.4-1,0-1.4l4-4l-4-4C8,7,8,6.4,8.3,6c0.4-0.4,1-0.4,1.4,0l4.7,4.7
			c0.2,0.2,0.3,0.4,0.3,0.7c0,0.3-0.1,0.5-0.3,0.7l-4.7,4.7C9.5,16.9,9.3,17,9,17L9,17z"/>
	</g>
</g>
</svg>
