<?xml version="1.0" encoding="utf-8"?>
<!-- Generator: Adobe Illustrator 24.1.2, SVG Export Plug-In . SVG Version: 6.00 Build 0)  -->
<svg version="1.1" id="Layer_1" xmlns="http://www.w3.org/2000/svg" xmlns:xlink="http://www.w3.org/1999/xlink" x="0px" y="0px"
	 viewBox="0 0 22.7 22.7" style="enable-background:new 0 0 22.7 22.7;" xml:space="preserve">
<style type="text/css">
	.st0{fill:#FFFFFF;}
</style>
<g>
	<g>
		<path class="st0" d="M21,3.4H1.7c-0.6,0-1-0.4-1-1c0-0.6,0.4-1,1-1H21c0.6,0,1,0.4,1,1C22,3,21.5,3.4,21,3.4L21,3.4z"/>
	</g>
	<g>
		<path class="st0" d="M21,12.4H1.7c-0.6,0-1-0.4-1-1c0-0.6,0.4-1,1-1H21c0.6,0,1,0.4,1,1C22,12,21.5,12.4,21,12.4L21,12.4z"/>
	</g>
	<g>
		<path class="st0" d="M21,21.4H1.7c-0.6,0-1-0.4-1-1c0-0.6,0.4-1,1-1H21c0.6,0,1,0.4,1,1C22,21,21.5,21.4,21,21.4L21,21.4z"/>
	</g>
</g>
</svg>
