<?xml version="1.0" encoding="utf-8"?>
<!-- Generator: Adobe Illustrator 24.1.2, SVG Export Plug-In . SVG Version: 6.00 Build 0)  -->
<svg version="1.1" id="Layer_1" xmlns="http://www.w3.org/2000/svg" xmlns:xlink="http://www.w3.org/1999/xlink" x="0px" y="0px"
	 viewBox="0 0 22.7 22.7" style="enable-background:new 0 0 22.7 22.7;" xml:space="preserve">
<style type="text/css">
	.st0{fill:#FFFFFF;}
	.st1{fill:#E72558;}
	.st2{fill:#64C3CD;}
	.st3{fill:#020203;}
</style>
<g>
	<path class="st0" d="M15.7,0H7C3.1,0,0,3.1,0,7v8.7c0,3.9,3.1,7,7,7h8.7c3.9,0,7-3.1,7-7V7C22.7,3.1,19.6,0,15.7,0z"/>
	<g>
		<path class="st1" d="M18.1,7.8c-1.9,0-3.4-1.5-3.4-3.4h-2.6v9.9c0,1.2-0.9,2.1-2.1,2.1c-1.2,0-2.1-0.9-2.1-2.1
			c0-1.2,0.9-2.1,2.1-2.1c0.2,0,0.5,0,0.7,0.1V9.7c-0.2,0-0.4,0-0.7,0c-2.6,0-4.7,2.1-4.7,4.7S7.4,19,10,19c2.6,0,4.7-2.1,4.7-4.7
			V9.1c0.9,0.8,2.1,1.2,3.4,1.2V7.8z"/>
		<path class="st2" d="M17.4,7.1c-1.9,0-3.4-1.5-3.4-3.4h-2.6v9.9c0,1.2-0.9,2.1-2.1,2.1c-1.2,0-2.1-0.9-2.1-2.1
			c0-1.2,0.9-2.1,2.1-2.1c0.2,0,0.5,0,0.7,0.1V9C9.7,9,9.5,9,9.3,9c-2.6,0-4.7,2.1-4.7,4.7c0,2.6,2.1,4.7,4.7,4.7
			c2.6,0,4.7-2.1,4.7-4.7V8.4c0.9,0.8,2.1,1.2,3.4,1.2V7.1z"/>
		<path class="st3" d="M17.4,7.8c-0.8-0.2-1.5-0.7-2-1.3c-0.7-0.5-1.1-1.2-1.3-2h-1.9v9.9c0,1.2-0.9,2.1-2.1,2.1
			c-0.8,0-1.4-0.4-1.8-1c-0.6-0.4-1-1-1-1.8c0-1.2,0.9-2.1,2.1-2.1c0.2,0,0.5,0,0.7,0.1V9.7c-2.5,0-4.6,2.1-4.6,4.7
			c0,1.1,0.4,2.1,1,2.9c0.8,0.6,1.8,1,2.9,1c2.6,0,4.7-2.1,4.7-4.7V8.4c0.9,0.8,2.1,1.2,3.4,1.2V7.8z"/>
	</g>
</g>
</svg>
