<?xml version="1.0" encoding="utf-8"?>
<!-- Generator: Adobe Illustrator 24.1.2, SVG Export Plug-In . SVG Version: 6.00 Build 0)  -->
<svg version="1.1" id="Layer_1" xmlns="http://www.w3.org/2000/svg" xmlns:xlink="http://www.w3.org/1999/xlink" x="0px" y="0px"
	 viewBox="0 0 22.7 22.7" style="enable-background:new 0 0 22.7 22.7;" xml:space="preserve">
<style type="text/css">
	.st0{fill:#FFFFFF;}
	.st1{fill:url(#SVGID_1_);}
</style>
<g>
	<path class="st0" d="M5.7,21.8c0-1.1,0-2.2,0-2.6c-2.1-0.7-3-1.6-3.7-2.6c-1-1.3-1.4-3-1.4-4.9V8c0-2.4,0.9-4.5,2.5-5.9
		C4.7,0.7,6.8,0,9.2,0h2.9c3.2,0,5.6,0.6,7.2,1.9C21.1,3.3,22,5.4,22,8v3.6c0.2,5.7-3.8,8.3-9.1,8.3H9.5l-2.2,2.5
		C6.8,23,5.7,22.6,5.7,21.8z"/>
	<linearGradient id="SVGID_1_" gradientUnits="userSpaceOnUse" x1="11.3354" y1="21.8996" x2="11.3354" y2="1.5466">
		<stop  offset="0" style="stop-color:#6A2E87"/>
		<stop  offset="1" style="stop-color:#874E9A"/>
	</linearGradient>
	<path class="st1" d="M13.3,18.2H10l-3.1,3.6c-0.2,0.2-0.5,0.1-0.5-0.2c0-1.2,0-3.5,0-3.8C3.8,17,2.2,15,2.2,11.6V8
		c0-4.1,3-6.5,7-6.5h2.9c5.6,0,8.4,2.2,8.4,6.5v3.6C20.5,15.7,17.8,18.2,13.3,18.2z"/>
	<g>
		<path class="st0" d="M6.2,7.9c0.5,1.5,1.5,3.1,2.9,4.5c1.4,1.4,3,2.4,4.5,2.9c0.3,0.1,0.7,0.2,1,0.2c0.7,0,1.3-0.1,1.7-0.6
			c0.2-0.3,0.3-0.7,0.3-1.1c0-0.2-0.2-0.5-0.4-0.7l-1.8-1.2c-0.2-0.1-0.5-0.1-0.7,0l-0.7,0.7c-0.1,0.1-0.4,0.2-0.7,0
			c-0.6-0.4-1.3-0.9-1.9-1.6c-0.6-0.6-1.2-1.3-1.6-1.9C8.7,9,8.7,8.7,8.8,8.6l0.7-0.7c0.1-0.1,0.2-0.4,0-0.7L8.4,5.3
			C8.2,5.1,7.9,4.9,7.7,4.9c-0.3,0-0.8,0.1-1,0.3C6.2,5.6,6,6.3,6,7C6,7.3,6.1,7.6,6.2,7.9z"/>
		<g>
			<path class="st0" d="M16.1,10.2L16.1,10.2c-0.1,0-0.2-0.2-0.2-0.3C16,9.6,16,9.4,16,9c0-2.1-1.7-3.8-3.8-3.8
				c-0.3,0-0.6,0-0.9,0.1l-0.1-0.2c0-0.1,0.1-0.3,0.2-0.3c0.2,0,0.5-0.1,0.7-0.1c2.4,0,4.3,1.9,4.3,4.3c0,0.4,0,0.7-0.1,1
				C16.3,10.2,16.2,10.2,16.1,10.2z"/>
			<path class="st0" d="M14.9,9.9L14.9,9.9c-0.1,0-0.2-0.2-0.2-0.3c0-0.2,0-0.4,0-0.6c0-1.4-1.2-2.6-2.6-2.6c-0.1,0-0.3,0-0.4,0
				c-0.1,0-0.2-0.1-0.3-0.2l0,0c0-0.1,0.1-0.3,0.2-0.3c0.1,0,0.3,0,0.5,0c1.7,0,3.1,1.4,3.1,3.1c0,0.2,0,0.5,0,0.7
				C15.2,9.8,15.1,9.9,14.9,9.9z"/>
			<path class="st0" d="M13.6,9.7L13.6,9.7c-0.1,0-0.2-0.2-0.1-0.3c0-0.1,0-0.2,0-0.3c0-0.7-0.6-1.3-1.3-1.3c0,0,0,0-0.1,0
				c-0.1,0-0.2-0.1-0.2-0.2l0,0c0-0.2,0.1-0.3,0.2-0.3c0,0,0.1,0,0.1,0C13.2,7.2,14,8,14,9c0,0.2,0,0.3-0.1,0.5
				C13.9,9.6,13.8,9.7,13.6,9.7z"/>
		</g>
	</g>
</g>
</svg>
