<?xml version="1.0" encoding="utf-8"?>
<!-- Generator: Adobe Illustrator 24.1.2, SVG Export Plug-In . SVG Version: 6.00 Build 0)  -->
<svg version="1.1" id="Layer_1" xmlns="http://www.w3.org/2000/svg" xmlns:xlink="http://www.w3.org/1999/xlink" x="0px" y="0px"
	 viewBox="0 0 22.7 22.7" style="enable-background:new 0 0 22.7 22.7;" xml:space="preserve">
<style type="text/css">
	.st0{fill:#FFFFFF;}
	.st1{fill:#DC0D15;}
</style>
<path class="st0" d="M19.4,3.1H3.3C1.5,3.1,0,4.6,0,6.5v9.8c0,1.8,1.5,3.3,3.3,3.3h16.1c1.8,0,3.3-1.5,3.3-3.3V6.5
	C22.7,4.6,21.2,3.1,19.4,3.1z"/>
<path class="st1" d="M19.4,3.1H3.3C1.5,3.1,0,4.6,0,6.5v9.8c0,1.8,1.5,3.3,3.3,3.3h16.1c1.8,0,3.3-1.5,3.3-3.3V6.5
	C22.7,4.6,21.2,3.1,19.4,3.1z M17.6,11.4c0,0.2-0.1,0.4-0.2,0.6c-0.1,0.2-0.8,0.6-0.8,0.6l-7.2,3.8c-0.2,0.1-0.3,0.1-0.5,0.1
	c-0.4,0-0.8-0.2-1-0.6c-0.1-0.2-0.1-0.4-0.1-0.6l0-0.4l0-4.2l0-3l0-0.4c0-0.2,0.1-0.4,0.1-0.6c0.3-0.5,1-0.7,1.5-0.5
	c0,0,6.4,3.4,7.1,3.8c0.2,0.1,0.8,0.4,0.9,0.6C17.6,10.9,17.6,11.1,17.6,11.4L17.6,11.4z"/>
</svg>
